<svg width="15" height="15" viewBox="0 0 15 15" fill="none" xmlns="http://www.w3.org/2000/svg">
<path d="M12.2 0.116669C10.7249 0.116669 9.51671 1.32485 9.51671 2.8C9.51671 3.44137 9.74523 4.03198 10.1247 4.49505L8.27986 6.825H5.61974C5.35436 5.6236 4.2779 4.71667 3.00004 4.71667C1.52489 4.71667 0.316711 5.92485 0.316711 7.4C0.316711 8.87515 1.52489 10.0833 3.00004 10.0833C4.2779 10.0833 5.35436 9.1764 5.61974 7.975H8.27986L10.1247 10.3049C9.74523 10.768 9.51671 11.3586 9.51671 12C9.51671 13.4752 10.7249 14.6833 12.2 14.6833C13.6752 14.6833 14.8834 13.4752 14.8834 12C14.8834 10.5248 13.6752 9.31667 12.2 9.31667C11.7794 9.31667 11.3822 9.41753 11.0268 9.59219L9.2921 7.4L11.0268 5.20781C11.3822 5.38247 11.7794 5.48334 12.2 5.48334C13.6752 5.48334 14.8834 4.27516 14.8834 2.8C14.8834 1.32485 13.6752 0.116669 12.2 0.116669ZM12.2 1.26667C13.0537 1.26667 13.7334 1.94635 13.7334 2.8C13.7334 3.65365 13.0537 4.33334 12.2 4.33334C11.3464 4.33334 10.6667 3.65365 10.6667 2.8C10.6667 1.94635 11.3464 1.26667 12.2 1.26667ZM3.00004 5.86667C3.85369 5.86667 4.53338 6.54635 4.53338 7.4C4.53338 8.25365 3.85369 8.93334 3.00004 8.93334C2.1464 8.93334 1.46671 8.25365 1.46671 7.4C1.46671 6.54635 2.1464 5.86667 3.00004 5.86667ZM12.2 10.4667C13.0537 10.4667 13.7334 11.1464 13.7334 12C13.7334 12.8536 13.0537 13.5333 12.2 13.5333C11.3464 13.5333 10.6667 12.8536 10.6667 12C10.6667 11.1464 11.3464 10.4667 12.2 10.4667Z" fill="#C95E3B"/>
</svg>
