<svg width="14" height="14" viewBox="0 0 14 14" fill="none" xmlns="http://www.w3.org/2000/svg">
<path d="M5.82989 0C2.61738 0 0 2.61738 0 5.82989C0 9.04241 2.61738 11.6598 5.82989 11.6598C7.2274 11.6598 8.51028 11.1633 9.51608 10.3397L12.9966 13.8209C13.1431 13.9735 13.3602 14.0343 13.5644 13.9811C13.7686 13.928 13.928 13.7686 13.9811 13.5644C14.0343 13.3602 13.9735 13.1431 13.8209 12.9966L10.3397 9.51532C11.1633 8.51028 11.6598 7.2274 11.6598 5.82989C11.6598 2.61738 9.04241 0 5.82989 0ZM5.82989 1.16598C8.41235 1.16598 10.4938 3.24743 10.4938 5.82989C10.4938 8.41235 8.41235 10.4938 5.82989 10.4938C3.24743 10.4938 1.16598 8.41235 1.16598 5.82989C1.16598 3.24743 3.24743 1.16598 5.82989 1.16598Z" fill="#C95E3B"/>
</svg>
