<svg width="14" height="16" viewBox="0 0 14 16" fill="none" xmlns="http://www.w3.org/2000/svg">
<path d="M7 0.5C5.59375 0.5 4.64648 1.0542 3.79688 1.51562C2.94727 1.97705 2.17578 2.375 0.75 2.375H0.125V3C0.125 7.82422 1.75586 10.9639 3.40625 12.8633C5.05664 14.7627 6.76562 15.4609 6.76562 15.4609L7 15.5391L7.23438 15.4609C7.23438 15.4609 8.94336 14.7773 10.5938 12.8828C12.2441 10.9883 13.875 7.84131 13.875 3V2.375H13.25C11.8315 2.375 11.0527 1.97705 10.2031 1.51562C9.35352 1.0542 8.40625 0.5 7 0.5ZM7 1.75C8.09375 1.75 8.72119 2.1333 9.59766 2.60938C10.3374 3.01221 11.3188 3.39795 12.5859 3.52734C12.4663 7.75586 11.0674 10.4438 9.65625 12.0625C8.37695 13.5298 7.30273 14.0181 7 14.1523C6.69482 14.0156 5.62305 13.5151 4.34375 12.043C2.93262 10.4194 1.53369 7.73633 1.41406 3.52734C2.68603 3.39795 3.6626 3.01221 4.40234 2.60938C5.27881 2.1333 5.90625 1.75 7 1.75Z" fill="#C95E3B"/>
</svg>
